<svg width="32" height="32" viewBox="0 0 32 32" fill="none" xmlns="http://www.w3.org/2000/svg">
<path d="M21.3327 21.3327C21.3327 21.3327 19.3327 18.666 15.9993 18.666C12.666 18.666 10.666 21.3327 10.666 21.3327M19.9993 11.9993H20.0127M11.9993 11.9993H12.0127M29.3327 15.9993C29.3327 23.3631 23.3631 29.3327 15.9993 29.3327C8.63555 29.3327 2.66602 23.3631 2.66602 15.9993C2.66602 8.63555 8.63555 2.66602 15.9993 2.66602C23.3631 2.66602 29.3327 8.63555 29.3327 15.9993ZM20.666 11.9993C20.666 12.3675 20.3675 12.666 19.9993 12.666C19.6312 12.666 19.3327 12.3675 19.3327 11.9993C19.3327 11.6312 19.6312 11.3327 19.9993 11.3327C20.3675 11.3327 20.666 11.6312 20.666 11.9993ZM12.666 11.9993C12.666 12.3675 12.3675 12.666 11.9993 12.666C11.6312 12.666 11.3327 12.3675 11.3327 11.9993C11.3327 11.6312 11.6312 11.3327 11.9993 11.3327C12.3675 11.3327 12.666 11.6312 12.666 11.9993Z" stroke="#F2B6C0" stroke-width="2" stroke-linecap="round" stroke-linejoin="round"/>
</svg>
