<svg width="48" height="48" viewBox="0 0 48 48" fill="none" xmlns="http://www.w3.org/2000/svg">
<rect width="48" height="48" rx="4" fill="white"/>
<path d="M30.666 12L23.9993 17.3333L17.3327 12M17.066 36H30.9327C33.1729 36 34.293 36 35.1486 35.564C35.9013 35.1805 36.5132 34.5686 36.8967 33.816C37.3327 32.9603 37.3327 31.8402 37.3327 29.6V23.7333C37.3327 21.4931 37.3327 20.373 36.8967 19.5174C36.5132 18.7647 35.9013 18.1528 35.1486 17.7693C34.293 17.3333 33.1729 17.3333 30.9327 17.3333H17.066C14.8258 17.3333 13.7057 17.3333 12.8501 17.7693C12.0974 18.1528 11.4855 18.7647 11.102 19.5174C10.666 20.373 10.666 21.4931 10.666 23.7333V29.6C10.666 31.8402 10.666 32.9603 11.102 33.816C11.4855 34.5686 12.0974 35.1805 12.8501 35.564C13.7057 36 14.8258 36 17.066 36Z" stroke="#F2183D" stroke-width="2" stroke-linecap="round" stroke-linejoin="round"/>
</svg>
