<svg width="48" height="48" viewBox="0 0 48 48" fill="none" xmlns="http://www.w3.org/2000/svg">
<rect width="48" height="48" rx="4" fill="white"/>
<path d="M14.666 24.0003C14.666 18.8457 18.8447 14.667 23.9993 14.667M29.9992 18.0003L23.9992 24.0003M37.3327 24.0003C37.3327 31.3641 31.3631 37.3337 23.9993 37.3337C16.6356 37.3337 10.666 31.3641 10.666 24.0003C10.666 16.6365 16.6356 10.667 23.9993 10.667C31.3631 10.667 37.3327 16.6365 37.3327 24.0003ZM25.3327 24.0003C25.3327 24.7367 24.7357 25.3337 23.9993 25.3337C23.263 25.3337 22.666 24.7367 22.666 24.0003C22.666 23.2639 23.263 22.667 23.9993 22.667C24.7357 22.667 25.3327 23.2639 25.3327 24.0003Z" stroke="#F2183D" stroke-width="2" stroke-linecap="round" stroke-linejoin="round"/>
</svg>
