<svg width="48" height="48" viewBox="0 0 48 48" fill="none" xmlns="http://www.w3.org/2000/svg">
<rect width="48" height="48" rx="4" fill="white"/>
<path d="M19.9993 24.0003L22.666 26.667L28.666 20.667M17.7777 13.0919C18.8495 13.0064 19.867 12.5849 20.6853 11.8876C22.595 10.2601 25.4037 10.2601 27.3134 11.8876C28.1317 12.5849 29.1492 13.0064 30.221 13.0919C32.7221 13.2915 34.7082 15.2776 34.9078 17.7787C34.9933 18.8505 35.4147 19.8679 36.1121 20.6863C37.7395 22.596 37.7395 25.4047 36.1121 27.3144C35.4147 28.1327 34.9933 29.1502 34.9078 30.222C34.7082 32.7231 32.7221 34.7091 30.221 34.9087C29.1492 34.9943 28.1317 35.4157 27.3134 36.1131C25.4037 37.7405 22.595 37.7405 20.6853 36.1131C19.867 35.4157 18.8495 34.9943 17.7777 34.9087C15.2766 34.7091 13.2905 32.7231 13.0909 30.222C13.0054 29.1502 12.584 28.1327 11.8866 27.3144C10.2592 25.4047 10.2592 22.596 11.8866 20.6863C12.584 19.8679 13.0054 18.8505 13.0909 17.7787C13.2905 15.2776 15.2766 13.2915 17.7777 13.0919Z" stroke="#F2183D" stroke-width="2" stroke-linecap="round" stroke-linejoin="round"/>
</svg>
