<svg width="48" height="48" viewBox="0 0 48 48" fill="none" xmlns="http://www.w3.org/2000/svg">
<rect width="48" height="48" rx="4" fill="#F2F2F2"/>
<path d="M25.3327 17.3333L23.8453 14.3586C23.4172 13.5024 23.2032 13.0743 22.8838 12.7616C22.6015 12.485 22.2611 12.2746 21.8874 12.1457C21.4649 12 20.9863 12 20.0291 12H14.9327C13.4392 12 12.6925 12 12.122 12.2906C11.6203 12.5463 11.2123 12.9543 10.9567 13.456C10.666 14.0265 10.666 14.7732 10.666 16.2667V17.3333M10.666 17.3333H30.9327C33.1729 17.3333 34.293 17.3333 35.1486 17.7693C35.9013 18.1528 36.5132 18.7647 36.8967 19.5174C37.3327 20.373 37.3327 21.4931 37.3327 23.7333V29.6C37.3327 31.8402 37.3327 32.9603 36.8967 33.816C36.5132 34.5686 35.9013 35.1805 35.1486 35.564C34.293 36 33.1729 36 30.9327 36H17.066C14.8258 36 13.7057 36 12.8501 35.564C12.0974 35.1805 11.4855 34.5686 11.102 33.816C10.666 32.9603 10.666 31.8402 10.666 29.6V17.3333ZM20.666 23.3333L27.3327 30M29.3327 26.6667C29.3327 29.6122 26.9449 32 23.9993 32C21.0538 32 18.666 29.6122 18.666 26.6667C18.666 23.7211 21.0538 21.3333 23.9993 21.3333C26.9449 21.3333 29.3327 23.7211 29.3327 26.6667Z" stroke="#13BF69" stroke-width="2" stroke-linecap="round" stroke-linejoin="round"/>
</svg>
