<svg width="48" height="48" viewBox="0 0 48 48" fill="none" xmlns="http://www.w3.org/2000/svg">
<rect width="48" height="48" rx="4" fill="white"/>
<path d="M26.6673 11.0264V16.5338C26.6673 17.2805 26.6673 17.6539 26.8126 17.9391C26.9405 18.19 27.1444 18.3939 27.3953 18.5218C27.6805 18.6671 28.0539 18.6671 28.8007 18.6671H34.308M26.6673 30.667H18.6673M29.334 25.3337H18.6673M34.6673 21.318V30.9337C34.6673 33.1739 34.6673 34.294 34.2313 35.1496C33.8479 35.9023 33.2359 36.5142 32.4833 36.8977C31.6276 37.3337 30.5075 37.3337 28.2673 37.3337H19.734C17.4938 37.3337 16.3737 37.3337 15.518 36.8977C14.7654 36.5142 14.1535 35.9023 13.77 35.1496C13.334 34.294 13.334 33.1739 13.334 30.9337V17.067C13.334 14.8268 13.334 13.7067 13.77 12.851C14.1535 12.0984 14.7654 11.4865 15.518 11.103C16.3737 10.667 17.4938 10.667 19.734 10.667H24.0164C24.9947 10.667 25.4839 10.667 25.9442 10.7775C26.3524 10.8755 26.7426 11.0371 27.1005 11.2564C27.5041 11.5038 27.85 11.8497 28.5418 12.5415L32.7928 16.7925C33.4846 17.4843 33.8305 17.8302 34.0779 18.2339C34.2972 18.5917 34.4588 18.9819 34.5568 19.3901C34.6673 19.8504 34.6673 20.3396 34.6673 21.318Z" stroke="#F2183D" stroke-width="2" stroke-linecap="round" stroke-linejoin="round"/>
</svg>
