<svg width="48" height="48" viewBox="0 0 48 48" fill="none" xmlns="http://www.w3.org/2000/svg">
<rect width="48" height="48" rx="4" fill="#F2F2F2"/>
<path d="M25.3327 14.6667C25.3327 16.1394 22.0494 17.3333 17.9993 17.3333C13.9493 17.3333 10.666 16.1394 10.666 14.6667M25.3327 14.6667C25.3327 13.1939 22.0494 12 17.9993 12C13.9493 12 10.666 13.1939 10.666 14.6667M25.3327 14.6667V20.6095C23.704 21.0986 22.666 21.8386 22.666 22.6667M10.666 14.6667V30.6667C10.666 32.1394 13.9493 33.3333 17.9993 33.3333C19.7722 33.3333 21.3981 33.1046 22.666 32.7238V22.6667M10.666 20C10.666 21.4728 13.9493 22.6667 17.9993 22.6667C19.7722 22.6667 21.3981 22.4379 22.666 22.0571M10.666 25.3333C10.666 26.8061 13.9493 28 17.9993 28C19.7722 28 21.3981 27.7712 22.666 27.3905M37.3327 22.6667C37.3327 24.1394 34.0494 25.3333 29.9993 25.3333C25.9493 25.3333 22.666 24.1394 22.666 22.6667M37.3327 22.6667C37.3327 21.1939 34.0494 20 29.9993 20C25.9493 20 22.666 21.1939 22.666 22.6667M37.3327 22.6667V33.3333C37.3327 34.8061 34.0494 36 29.9993 36C25.9493 36 22.666 34.8061 22.666 33.3333V22.6667M37.3327 28C37.3327 29.4728 34.0494 30.6667 29.9993 30.6667C25.9493 30.6667 22.666 29.4728 22.666 28" stroke="#13BF69" stroke-width="2" stroke-linecap="round" stroke-linejoin="round"/>
</svg>
