<svg width="48" height="48" viewBox="0 0 48 48" fill="none" xmlns="http://www.w3.org/2000/svg">
<rect width="48" height="48" rx="4" fill="white"/>
<path d="M15.9993 16.0003H16.0127M15.9993 32.0003H16.0127M14.9327 21.3337H33.066C34.5595 21.3337 35.3062 21.3337 35.8767 21.043C36.3784 20.7873 36.7864 20.3794 37.042 19.8776C37.3327 19.3072 37.3327 18.5605 37.3327 17.067V14.9337C37.3327 13.4402 37.3327 12.6934 37.042 12.123C36.7864 11.6213 36.3784 11.2133 35.8767 10.9576C35.3062 10.667 34.5595 10.667 33.066 10.667H14.9327C13.4392 10.667 12.6925 10.667 12.122 10.9576C11.6203 11.2133 11.2123 11.6213 10.9567 12.123C10.666 12.6934 10.666 13.4402 10.666 14.9337V17.067C10.666 18.5605 10.666 19.3072 10.9567 19.8776C11.2123 20.3794 11.6203 20.7873 12.122 21.043C12.6925 21.3337 13.4392 21.3337 14.9327 21.3337ZM14.9327 37.3337H33.066C34.5595 37.3337 35.3062 37.3337 35.8767 37.043C36.3784 36.7873 36.7864 36.3794 37.042 35.8776C37.3327 35.3072 37.3327 34.5605 37.3327 33.067V30.9337C37.3327 29.4402 37.3327 28.6934 37.042 28.123C36.7864 27.6213 36.3784 27.2133 35.8767 26.9576C35.3062 26.667 34.5595 26.667 33.066 26.667H14.9327C13.4392 26.667 12.6925 26.667 12.122 26.9576C11.6203 27.2133 11.2123 27.6213 10.9567 28.123C10.666 28.6934 10.666 29.4402 10.666 30.9337V33.067C10.666 34.5605 10.666 35.3072 10.9567 35.8776C11.2123 36.3794 11.6203 36.7873 12.122 37.043C12.6925 37.3337 13.4392 37.3337 14.9327 37.3337Z" stroke="#F2183D" stroke-width="2" stroke-linecap="round" stroke-linejoin="round"/>
</svg>
