<svg width="48" height="48" viewBox="0 0 48 48" fill="none" xmlns="http://www.w3.org/2000/svg">
<rect width="48" height="48" rx="4" fill="white"/>
<path d="M22.666 13.3333H17.066C14.8258 13.3333 13.7057 13.3333 12.8501 13.7693C12.0974 14.1528 11.4855 14.7647 11.102 15.5173C10.666 16.373 10.666 17.4931 10.666 19.7333V30.9333C10.666 33.1735 10.666 34.2936 11.102 35.1493C11.4855 35.9019 12.0974 36.5138 12.8501 36.8973C13.7057 37.3333 14.8258 37.3333 17.066 37.3333H28.266C30.5062 37.3333 31.6263 37.3333 32.482 36.8973C33.2346 36.5138 33.8465 35.9019 34.23 35.1493C34.666 34.2936 34.666 33.1735 34.666 30.9333V25.3333M18.666 29.3333H20.8987C21.5509 29.3333 21.8771 29.3333 22.184 29.2596C22.4561 29.1943 22.7162 29.0866 22.9548 28.9404C23.2239 28.7754 23.4545 28.5448 23.9157 28.0836L36.666 15.3333C37.7706 14.2287 37.7706 12.4379 36.666 11.3333C35.5614 10.2287 33.7706 10.2287 32.666 11.3333L19.9157 24.0836C19.4545 24.5448 19.2239 24.7754 19.0589 25.0446C18.9127 25.2831 18.805 25.5433 18.7397 25.8154C18.666 26.1223 18.666 26.4484 18.666 27.1006V29.3333Z" stroke="#F2183D" stroke-width="2" stroke-linecap="round" stroke-linejoin="round"/>
</svg>
