<svg width="48" height="48" viewBox="0 0 48 48" fill="none" xmlns="http://www.w3.org/2000/svg">
<rect width="48" height="48" rx="4" fill="#F2F2F2"/>
<path d="M34.6673 14.667C34.6673 16.8761 29.8917 18.667 24.0007 18.667C18.1096 18.667 13.334 16.8761 13.334 14.667M34.6673 14.667C34.6673 12.4579 29.8917 10.667 24.0007 10.667C18.1096 10.667 13.334 12.4579 13.334 14.667M34.6673 14.667V33.3337C34.6673 35.5428 29.8917 37.3337 24.0007 37.3337C18.1096 37.3337 13.334 35.5428 13.334 33.3337V14.667M34.6673 20.8891C34.6673 23.0983 29.8917 24.8891 24.0007 24.8891C18.1096 24.8891 13.334 23.0983 13.334 20.8891M34.6673 27.107C34.6673 29.3161 29.8917 31.107 24.0007 31.107C18.1096 31.107 13.334 29.3161 13.334 27.107" stroke="#13BF69" stroke-width="2" stroke-linecap="round" stroke-linejoin="round"/>
</svg>
