<svg width="48" height="48" viewBox="0 0 48 48" fill="none" xmlns="http://www.w3.org/2000/svg">
<rect width="48" height="48" rx="4" fill="white"/>
<path d="M26.6673 22.667H18.6673M21.334 28.0003H18.6673M29.334 17.3337H18.6673M34.6673 21.3337V17.067C34.6673 14.8268 34.6673 13.7067 34.2313 12.851C33.8478 12.0984 33.2359 11.4865 32.4833 11.103C31.6276 10.667 30.5075 10.667 28.2673 10.667H19.734C17.4938 10.667 16.3737 10.667 15.518 11.103C14.7654 11.4865 14.1535 12.0984 13.77 12.851C13.334 13.7067 13.334 14.8268 13.334 17.067V30.9337C13.334 33.1739 13.334 34.294 13.77 35.1496C14.1535 35.9023 14.7654 36.5142 15.518 36.8977C16.3737 37.3337 17.4938 37.3337 19.734 37.3337H24.6673M32.0006 36.0003C32.0006 36.0003 36.0006 34.0938 36.0006 31.234V27.8975L33.0838 26.8553C32.383 26.6042 31.6167 26.6042 30.9159 26.8553L28.0007 27.8975V31.234C28.0007 34.0938 32.0006 36.0003 32.0006 36.0003Z" stroke="#F2183D" stroke-width="2" stroke-linecap="round" stroke-linejoin="round"/>
</svg>
