<svg width="48" height="48" viewBox="0 0 48 48" fill="none" xmlns="http://www.w3.org/2000/svg">
<rect width="48" height="48" rx="4" fill="white"/>
<path d="M36 24C36 30.6274 30.6274 36 24 36C22.4038 36 20.8804 35.6884 19.4873 35.1226C19.2207 35.0143 19.0874 34.9602 18.9796 34.936C18.8742 34.9124 18.7962 34.9037 18.6882 34.9037C18.5777 34.9037 18.4574 34.9238 18.2169 34.9639L13.473 35.7545C12.9762 35.8373 12.7279 35.8787 12.5482 35.8017C12.391 35.7342 12.2658 35.609 12.1983 35.4518C12.1213 35.2721 12.1627 35.0238 12.2455 34.527L13.0361 29.7831C13.0762 29.5426 13.0963 29.4223 13.0963 29.3118C13.0963 29.2038 13.0876 29.1258 13.064 29.0204C13.0398 28.9126 12.9857 28.7793 12.8774 28.5127C12.3116 27.1196 12 25.5962 12 24C12 17.3726 17.3726 12 24 12C30.6274 12 36 17.3726 36 24Z" stroke="#F2183D" stroke-width="2" stroke-linecap="round" stroke-linejoin="round"/>
</svg>
