<svg width="48" height="48" viewBox="0 0 48 48" fill="none" xmlns="http://www.w3.org/2000/svg">
<g clip-path="url(#clip0_1_1730)">
<rect width="48" height="48" rx="4" fill="#F24965"/>
<path d="M25.1798 32.3996C16.1599 32.3996 11.0151 26.0933 10.8008 15.5996H15.319C15.4674 23.3017 18.7983 26.5642 21.4366 27.2368V15.5996H25.691V22.2423C28.2963 21.9564 31.0336 18.9293 31.9571 15.5996H36.2114C35.8634 17.3265 35.1698 18.9616 34.1739 20.4026C33.178 21.8436 31.9013 23.0596 30.4235 23.9744C32.073 24.8103 33.53 25.9934 34.6982 27.4457C35.8664 28.898 36.7194 30.5864 37.2008 32.3996H32.5177C32.0856 30.8247 31.2073 29.415 29.9928 28.347C28.7784 27.279 27.282 26.6003 25.691 26.396V32.3996H25.1798V32.3996Z" fill="white"/>
</g>
<defs>
<clipPath id="clip0_1_1730">
<rect width="48" height="48" rx="4" fill="white"/>
</clipPath>
</defs>
</svg>
