<svg width="20" height="20" fill="none" xmlns="http://www.w3.org/2000/svg"><path fill-rule="evenodd" clip-rule="evenodd" d="M5.759 0h8.482c.805 0 1.47 0 2.01.044.563.046 1.08.145 1.565.392a4 4 0 011.748 1.748c.247.485.346 1.002.392 1.564C20 4.29 20 4.954 20 5.758v8.483c0 .805 0 1.47-.044 2.01-.046.563-.145 1.08-.392 1.565a4 4 0 01-1.748 1.748c-.485.247-1.002.346-1.564.392-.541.044-1.206.044-2.01.044H5.758c-.805 0-1.47 0-2.01-.044-.563-.046-1.08-.145-1.565-.392a4 4 0 01-1.748-1.748c-.247-.485-.346-1.002-.392-1.564C0 15.71 0 15.046 0 14.242V5.758c0-.805 0-1.47.044-2.01.046-.563.145-1.08.392-1.565A4 4 0 012.184.436C2.669.189 3.186.09 3.748.044 4.29 0 4.954 0 5.758 0zM3.91 2.038c-.438.035-.663.1-.819.18a2 2 0 00-.874.874c-.08.156-.145.38-.18.819C2 4.361 2 4.943 2 5.8v8.4c0 .857 0 1.439.038 1.889.035.438.1.663.18.819a2 2 0 00.874.874c.156.08.38.145.819.18C4.361 18 4.943 18 5.8 18h8.4c.857 0 1.439 0 1.889-.038.438-.035.663-.1.819-.18a2 2 0 00.874-.874c.08-.156.145-.38.18-.819.037-.45.038-1.032.038-1.889V5.8c0-.857 0-1.439-.038-1.889-.035-.438-.1-.663-.18-.819a2 2 0 00-.874-.874c-.156-.08-.38-.145-.819-.18C15.639 2 15.057 2 14.2 2H5.8c-.857 0-1.439 0-1.889.038zm11.296 4.255a1 1 0 010 1.414l-6 6a1 1 0 01-1.414 0l-3-3a1 1 0 011.414-1.414L8.5 11.586l5.293-5.293a1 1 0 011.414 0z" fill="#F2F2F2"/></svg>