<svg width="20" height="20" fill="none" xmlns="http://www.w3.org/2000/svg"><path fill-rule="evenodd" clip-rule="evenodd" d="M5.759 0h8.482c.805 0 1.47 0 2.01.044.563.046 1.08.145 1.565.392a4 4 0 011.748 1.748c.247.485.346 1.002.392 1.564C20 4.29 20 4.954 20 5.758v8.483c0 .805 0 1.47-.044 2.01-.046.563-.145 1.08-.392 1.565a4 4 0 01-1.748 1.748c-.485.247-1.002.346-1.564.392-.541.044-1.206.044-2.01.044H5.758c-.805 0-1.47 0-2.01-.044-.563-.046-1.08-.145-1.565-.392a4 4 0 01-1.748-1.748c-.247-.485-.346-1.002-.392-1.564C0 15.71 0 15.046 0 14.242V5.758c0-.805 0-1.47.044-2.01.046-.563.145-1.08.392-1.565A4 4 0 012.184.436C2.669.189 3.186.09 3.748.044 4.29 0 4.954 0 5.758 0zm9.448 6.293a1 1 0 010 1.414l-6 6a1 1 0 01-1.414 0l-3-3a1 1 0 011.414-1.414L8.5 11.586l5.293-5.293a1 1 0 011.414 0z" fill="#F2183D"/></svg>