<svg width="32" height="32" fill="none" xmlns="http://www.w3.org/2000/svg"><path d="M21.333 21.333s-2-2.667-5.334-2.667c-3.333 0-5.333 2.667-5.333 2.667m9.333-9.334h.014m-8.014 0h.014m17.32 4c0 7.364-5.97 13.334-13.334 13.334-7.363 0-13.333-5.97-13.333-13.334 0-7.363 5.97-13.333 13.333-13.333 7.364 0 13.334 5.97 13.334 13.333zm-8.667-4a.667.667 0 11-1.333 0 .667.667 0 011.333 0zm-8 0a.667.667 0 11-1.333 0 .667.667 0 011.333 0z" stroke="#F2B6C0" stroke-width="2" stroke-linecap="round" stroke-linejoin="round"/></svg>