<svg width="48" height="48" fill="none" xmlns="http://www.w3.org/2000/svg"><rect width="48" height="48" rx="4" fill="#F2F2F2"/><path d="M34.667 14.667c0 2.21-4.775 4-10.666 4s-10.667-1.79-10.667-4m21.333 0c0-2.21-4.775-4-10.666-4s-10.667 1.79-10.667 4m21.333 0v18.667c0 2.209-4.775 4-10.666 4s-10.667-1.791-10.667-4V14.667m21.333 6.222c0 2.21-4.775 4-10.666 4s-10.667-1.79-10.667-4m21.333 6.218c0 2.21-4.775 4-10.666 4s-10.667-1.79-10.667-4" stroke="#13BF69" stroke-width="2" stroke-linecap="round" stroke-linejoin="round"/></svg>