<svg width="48" height="48" fill="none" xmlns="http://www.w3.org/2000/svg"><rect width="48" height="48" rx="4" fill="#fff"/><path d="M26.667 11.026v5.508c0 .747 0 1.12.146 1.405.128.251.331.455.582.583.285.145.659.145 1.406.145h5.507m-7.64 12h-8m10.666-5.333H18.667m16-4.016v9.616c0 2.24 0 3.36-.436 4.216a4 4 0 01-1.748 1.748c-.855.436-1.975.436-4.216.436h-8.533c-2.24 0-3.36 0-4.216-.436a4 4 0 01-1.748-1.748c-.436-.856-.436-1.976-.436-4.216V17.067c0-2.24 0-3.36.436-4.216a4 4 0 011.748-1.748c.856-.436 1.976-.436 4.216-.436h4.282c.979 0 1.468 0 1.928.11a4 4 0 011.157.48c.403.247.749.593 1.44 1.284l4.252 4.252c.692.691 1.038 1.037 1.285 1.44.22.359.38.749.479 1.157.11.46.11.95.11 1.928z" stroke="#F2183D" stroke-width="2" stroke-linecap="round" stroke-linejoin="round"/></svg>