<svg width="48" height="48" fill="none" xmlns="http://www.w3.org/2000/svg"><rect width="48" height="48" rx="4" fill="#F2F2F2"/><path d="M25.333 14.667c0 1.472-3.284 2.666-7.334 2.666s-7.333-1.194-7.333-2.666m14.667 0c0-1.473-3.284-2.667-7.334-2.667s-7.333 1.194-7.333 2.667m14.667 0v5.943c-1.629.489-2.667 1.229-2.667 2.057m-12-8v16c0 1.472 3.283 2.666 7.333 2.666 1.773 0 3.4-.228 4.667-.61V22.668m-12-2.667c0 1.473 3.283 2.667 7.333 2.667 1.773 0 3.4-.23 4.667-.61m-12 3.276c0 1.473 3.283 2.667 7.333 2.667 1.773 0 3.4-.229 4.667-.61m14.667-4.723c0 1.472-3.284 2.666-7.334 2.666s-7.333-1.194-7.333-2.666m14.667 0c0-1.473-3.284-2.667-7.334-2.667s-7.333 1.194-7.333 2.667m14.667 0v10.666c0 1.473-3.284 2.667-7.334 2.667s-7.333-1.194-7.333-2.667V22.667M37.333 28c0 1.473-3.284 2.667-7.334 2.667S22.666 29.473 22.666 28" stroke="#13BF69" stroke-width="2" stroke-linecap="round" stroke-linejoin="round"/></svg>