<svg width="48" height="48" fill="none" xmlns="http://www.w3.org/2000/svg"><rect width="48" height="48" rx="4" fill="#F2F2F2"/><path d="M25.333 17.333l-1.488-2.974c-.428-.857-.642-1.285-.961-1.597a2.666 2.666 0 00-.997-.616C21.465 12 20.987 12 20.03 12h-5.096c-1.494 0-2.24 0-2.811.29-.502.256-.91.664-1.165 1.166-.291.57-.291 1.317-.291 2.81v1.067m0 0h20.267c2.24 0 3.36 0 4.216.436a4 4 0 011.748 1.748c.436.856.436 1.976.436 4.216V29.6c0 2.24 0 3.36-.436 4.216a4 4 0 01-1.748 1.748c-.856.436-1.976.436-4.216.436H17.066c-2.24 0-3.36 0-4.216-.436a4 4 0 01-1.748-1.748c-.436-.856-.436-1.976-.436-4.216V17.333zm10.467 6.337a2.997 2.997 0 015.826.999c0 1.998-2.998 2.998-2.998 2.998m.038 4h.014" stroke="#13BF69" stroke-width="2" stroke-linecap="round" stroke-linejoin="round"/></svg>