<svg width="48" height="48" fill="none" xmlns="http://www.w3.org/2000/svg"><rect width="48" height="48" rx="4" fill="#fff"/><path d="M16 16h.013m-.014 16h.014m-1.08-10.666h18.133c1.493 0 2.24 0 2.81-.291.502-.256.91-.664 1.166-1.165.29-.57.29-1.317.29-2.811v-2.133c0-1.494 0-2.24-.29-2.811a2.667 2.667 0 00-1.165-1.165c-.57-.291-1.318-.291-2.811-.291H14.933c-1.494 0-2.24 0-2.811.29-.502.256-.91.664-1.165 1.166-.291.57-.291 1.317-.291 2.81v2.134c0 1.494 0 2.24.29 2.81.256.502.664.91 1.166 1.166.57.29 1.317.29 2.81.29zm0 16h18.133c1.493 0 2.24 0 2.81-.291.502-.256.91-.664 1.166-1.165.29-.57.29-1.318.29-2.811v-2.133c0-1.494 0-2.24-.29-2.811a2.667 2.667 0 00-1.165-1.165c-.57-.291-1.318-.291-2.811-.291H14.933c-1.494 0-2.24 0-2.811.29-.502.256-.91.664-1.165 1.166-.291.57-.291 1.317-.291 2.81v2.134c0 1.493 0 2.24.29 2.81.256.502.664.91 1.166 1.166.57.29 1.317.29 2.81.29z" stroke="#F2183D" stroke-width="2" stroke-linecap="round" stroke-linejoin="round"/></svg>