<svg width="48" height="48" fill="none" xmlns="http://www.w3.org/2000/svg"><rect width="48" height="48" rx="4" fill="#fff"/><path d="M26.667 22.667h-8M21.334 28h-2.667m10.667-10.666H18.667m16 4v-4.267c0-2.24 0-3.36-.436-4.216a4 4 0 00-1.748-1.748c-.855-.436-1.975-.436-4.216-.436h-8.533c-2.24 0-3.36 0-4.216.436a4 4 0 00-1.748 1.748c-.436.856-.436 1.976-.436 4.216v13.867c0 2.24 0 3.36.436 4.216a4 4 0 001.748 1.748c.856.436 1.976.436 4.216.436h4.933M32.001 36s4-1.906 4-4.766v-3.337l-2.917-1.042a3.214 3.214 0 00-2.168 0L28 27.898v3.336C28 34.094 32 36 32 36z" stroke="#F2183D" stroke-width="2" stroke-linecap="round" stroke-linejoin="round"/></svg>