<svg width="48" height="48" fill="none" xmlns="http://www.w3.org/2000/svg"><rect width="48" height="48" rx="4" fill="#fff"/><path d="M30.666 12l-6.667 5.333L17.333 12m-.267 24h13.867c2.24 0 3.36 0 4.216-.436a4 4 0 001.748-1.748c.436-.856.436-1.976.436-4.216v-5.867c0-2.24 0-3.36-.436-4.216a4 4 0 00-1.748-1.748c-.856-.436-1.976-.436-4.216-.436H17.066c-2.24 0-3.36 0-4.216.436a4 4 0 00-1.748 1.748c-.436.856-.436 1.976-.436 4.216V29.6c0 2.24 0 3.36.436 4.216a4 4 0 001.748 1.748c.856.436 1.976.436 4.216.436z" stroke="#F2183D" stroke-width="2" stroke-linecap="round" stroke-linejoin="round"/></svg>