<svg width="48" height="48" fill="none" xmlns="http://www.w3.org/2000/svg"><rect width="48" height="48" rx="4" fill="#fff"/><path d="M20 24l2.666 2.667 6-6m-10.888-7.575a5.11 5.11 0 002.907-1.204 5.11 5.11 0 016.628 0 5.11 5.11 0 002.908 1.204 5.11 5.11 0 014.687 4.687 5.11 5.11 0 001.204 2.907 5.11 5.11 0 010 6.628 5.109 5.109 0 00-1.204 2.908 5.11 5.11 0 01-4.687 4.687 5.11 5.11 0 00-2.908 1.204 5.11 5.11 0 01-6.628 0 5.11 5.11 0 00-2.907-1.204 5.11 5.11 0 01-4.687-4.687 5.109 5.109 0 00-1.204-2.908 5.11 5.11 0 010-6.628 5.11 5.11 0 001.204-2.907 5.11 5.11 0 014.687-4.687z" stroke="#F2183D" stroke-width="2" stroke-linecap="round" stroke-linejoin="round"/></svg>