<svg width="48" height="48" fill="none" xmlns="http://www.w3.org/2000/svg"><rect width="48" height="48" rx="4" fill="#fff"/><path d="M36 24c0 6.627-5.373 12-12 12-1.596 0-3.12-.312-4.513-.877-.266-.109-.4-.163-.507-.187a1.211 1.211 0 00-.292-.032c-.11 0-.23.02-.471.06l-4.744.79c-.497.083-.745.125-.925.048a.667.667 0 01-.35-.35c-.077-.18-.035-.428.047-.925l.791-4.744c.04-.24.06-.36.06-.471a1.2 1.2 0 00-.032-.292c-.024-.107-.078-.24-.187-.507A11.965 11.965 0 0112 24c0-6.627 5.373-12 12-12s12 5.373 12 12z" stroke="#F2183D" stroke-width="2" stroke-linecap="round" stroke-linejoin="round"/></svg>