<svg width="48" height="48" fill="none" xmlns="http://www.w3.org/2000/svg"><rect width="48" height="48" rx="4" fill="#fff"/><path d="M22.666 13.333h-5.6c-2.24 0-3.36 0-4.216.436a4 4 0 00-1.748 1.748c-.436.856-.436 1.976-.436 4.216v11.2c0 2.24 0 3.36.436 4.216a4 4 0 001.748 1.748c.856.436 1.976.436 4.216.436h11.2c2.24 0 3.36 0 4.216-.436a4 4 0 001.748-1.748c.436-.855.436-1.976.436-4.216v-5.6m-16 4h2.233c.652 0 .978 0 1.285-.073.272-.066.532-.173.77-.32.27-.165.5-.395.962-.856l12.75-12.75a2.828 2.828 0 10-4-4l-12.75 12.75c-.462.46-.692.691-.857.96a2.665 2.665 0 00-.32.771c-.073.307-.073.633-.073 1.286v2.232z" stroke="#F2183D" stroke-width="2" stroke-linecap="round" stroke-linejoin="round"/></svg>