<svg width="48" height="48" fill="none" xmlns="http://www.w3.org/2000/svg"><g clip-path="url(#clip0_1_1727)"><rect width="48" height="48" rx="4" fill="#262626"/><path d="M25.18 32.4c-9.02 0-14.165-6.307-14.38-16.8h4.519c.148 7.702 3.48 10.964 6.118 11.637V15.6h4.254v6.642c2.605-.286 5.343-3.313 6.266-6.642h4.254a12.946 12.946 0 01-2.037 4.803 12.667 12.667 0 01-3.75 3.571 13.074 13.074 0 014.274 3.472 13.382 13.382 0 012.503 4.954h-4.683a8.328 8.328 0 00-2.525-4.053 8.07 8.07 0 00-4.302-1.951V32.4h-.511z" fill="#fff"/></g><defs><clipPath id="clip0_1_1727"><rect width="48" height="48" rx="4" fill="#fff"/></clipPath></defs></svg>